# xmcd
#
# Track frame offsets:
#	150
#	14152
#	30869
#	40680
#	52739
#	65602
#	91307
#	102756
#	118376
#	135151
#	161089
#	172336
#	186215
#	206331
#	220219
#	231652
#	243133
#	252956
#	267532
#	280359
#
# Disc length: 3905 seconds
#
# Revision: 1
# Processed by: cddbd v1.5.2PL0 Copyright (c) Steve Scherf et al.
# Submitted via: audiograbber 1.83.01
#
DISCID=230f3f14
DTITLE=Bob Marley - Soul Shakedown Part CD2
DYEAR=2006
DGENRE=Soul
TTITLE0=African Herbsman
TTITLE1=Stand Alone
TTITLE2=Sun Is Shining
TTITLE3=Brain Washing
TTITLE4=Lively Up Yourself
TTITLE5=Go Tell It On The Mountain
TTITLE6=Duppy Conqueror
TTITLE7=Fussing And Fighting
TTITLE8=Riding High
TTITLE9=Try Me
TTITLE10=No Sympathy
TTITLE11=My Cup
TTITLE12=Corner Stone
TTITLE13=No Water
TTITLE14=Reaction
TTITLE15=Cheer Up
TTITLE16=Soon ComeTrack 17
TTITLE17=Rebel's Hop
TTITLE18=Put It On
TTITLE19=Soul Captive
EXTD=
EXTT0=
EXTT1=
EXTT2=
EXTT3=
EXTT4=
EXTT5=
EXTT6=
EXTT7=
EXTT8=
EXTT9=
EXTT10=
EXTT11=
EXTT12=
EXTT13=
EXTT14=
EXTT15=
EXTT16=
EXTT17=
EXTT18=
EXTT19=
PLAYORDER=
